<svg width="42" height="43" viewBox="0 0 42 43" fill="none" xmlns="http://www.w3.org/2000/svg">
<mask id="mask0_684_5766" style="mask-type:luminance" maskUnits="userSpaceOnUse" x="0" y="0" width="42" height="43">
<path d="M41.8597 0.6875H0.794922V42.6875H41.8597V0.6875Z" fill="white"/>
</mask>
<g mask="url(#mask0_684_5766)">
<path d="M29.3896 13.4571C29.3896 13.4571 32.3765 12.4798 34.7776 10.1338L34.7829 12.0881C33.4903 13.1668 31.7574 13.7425 31.7574 13.7425L29.3896 13.4571Z" fill="#0D0D0D"/>
<path d="M40.3924 0.6875L40.3872 1.90137C40.5953 9.3117 40.5808 16.7704 40.3388 24.1808C40.3388 24.1276 40.3388 24.0744 40.3388 24.0211L40.3291 27.5038L41.8539 26.459V2.19642L40.3924 0.6875Z" fill="#0D0D0D"/>
<path d="M40.3928 1.89192L40.3929 0.6875L35.6343 1.37436C35.2131 2.62715 34.6468 5.37943 29.3896 8.03496V13.4574C29.3896 13.4574 32.3764 12.4802 34.7775 10.1343V27.0735L40.3299 27.5041L40.3396 24.0214C40.1314 16.6594 40.1507 9.24904 40.3928 1.89192Z" fill="#414141"/>
<path d="M40.3926 1.89111C40.6055 9.30626 40.5862 16.7699 40.3393 24.1802C40.1263 16.765 40.1457 9.30142 40.3926 1.89111Z" fill="#ACACAC"/>
<path d="M26.8732 40.1917L24.9854 33.623L22.5352 33.7326L24.1237 39.2244L26.8732 40.1917Z" fill="#820000"/>
<path d="M20.9865 27.5282L18.6387 19.0634L19.9748 14.6714L23.6441 27.5282H20.9865Z" fill="#820000"/>
<path d="M23.644 6.80654L15.9471 5.35059L13.7009 11.8128C11.053 19.9536 8.255 28.1185 5.34082 36.2012C10.6706 34.6001 14.2093 31.3061 16.9201 27.5284H16.0681L19.9747 14.6716L21.2139 19.0152C23.7167 12.1079 23.644 6.80654 23.644 6.8017V6.80654Z" fill="#FF3F36"/>
<path d="M23.765 6.82549L23.644 6.80615C23.644 6.80615 23.7167 12.1025 21.214 19.0146L23.644 27.528H16.9201C14.2092 31.3057 10.6705 34.5997 5.3408 36.2008C4.55659 38.3678 3.77237 40.5348 2.97363 42.6873L12.2244 41.7199L14.398 34.0967L24.9849 33.6227L26.8728 40.1914L33.4951 39.4706L23.765 6.82549Z" fill="#EB140A"/>
<path d="M13.9281 11.1176C13.8797 11.2724 13.8264 11.4224 13.7781 11.5771L15.9466 5.35205L12.6404 7.04966L0.794922 40.8848L2.97393 42.6881C6.3964 32.1289 10.07 21.5269 13.9233 11.1176H13.9281Z" fill="#B80000"/>
<path d="M13.9284 11.1162C10.5059 21.6755 6.82694 32.2783 2.97363 42.6875C6.39611 32.1283 10.0751 21.5255 13.9284 11.1162Z" fill="#FDC9C4"/>
</g>
</svg>
